<svg width="123" height="58" viewBox="0 0 123 58" fill="none" xmlns="http://www.w3.org/2000/svg">
<path fill-rule="evenodd" clip-rule="evenodd" d="M50.3421 47.9702L41.0653 51.2947C44.3513 50.7298 47.438 49.5914 50.3421 47.9702ZM71.8691 46.3669C68.1845 47.2283 64.5647 48.2075 60.8293 48.6519C64.7439 48.9734 68.3487 47.7804 71.8691 46.3669ZM62.7303 34.9998C62.7498 33.5432 61.8097 33.7258 60.9472 33.8503C58.0302 34.2695 56.5307 36.5177 55.1177 38.681C54.0877 40.2576 53.2157 42.0262 53.1917 44.0175C53.1822 44.7768 53.3843 45.3803 54.3668 44.8382C57.0493 43.3577 59.4611 41.5583 61.2012 38.9897C62.0302 37.766 62.6058 36.4239 62.7303 34.9998ZM60.8444 46.929C63.2171 47.0468 65.4937 46.393 67.7664 45.8158C77.5864 43.3209 85.8584 38.0949 93.356 31.4269C98.3642 26.9724 102.899 22.0842 107.269 17.0262C107.668 16.5651 108.054 16.0827 108.654 15.8717C109.329 15.635 109.806 15.6892 109.488 16.5885C109.411 16.8102 109.103 17.0173 109.524 17.1463C110.973 17.5918 110.58 18.648 110.323 19.6088C109.841 21.412 108.634 22.8334 107.601 24.3128C104.708 28.458 101.655 32.4976 98.099 36.1018C94.7974 39.4476 91.0481 42.2775 87.2217 45.0007C84.7859 46.7341 82.2843 48.4637 79.417 49.2469C77.5122 49.7672 75.9736 50.9307 74.1151 51.4599C70.5522 52.4743 66.9927 53.4468 63.2695 53.6534C60.2052 53.8231 57.3105 53.2157 54.6448 51.6911C53.7661 51.188 52.9398 51.1529 52.0477 51.5202C49.6432 52.5095 47.1997 53.4245 44.7639 54.2993C40.8013 55.7235 36.631 56.5123 32.4574 57.1353C25.8005 58.1291 19.1342 58.4422 12.4757 57.1219C8.56218 56.3459 4.75421 55.3265 1.81546 52.3599C1.04169 51.5788 0.467789 50.7169 0.504077 49.5562C0.51915 49.056 0.677141 48.6775 1.16675 48.4682C1.74567 48.2214 1.79648 48.6317 2.06333 49.0069C3.89279 51.5805 6.80865 51.9177 9.57936 52.4883C17.2148 54.0609 24.8118 53.3408 32.3904 52.0154C38.1897 51.001 43.8344 49.4306 49.2887 47.2014C49.7219 47.0245 50.3193 47.0395 49.9587 46.2217C48.702 43.3722 48.9046 40.4586 49.9274 37.6231C51.5056 33.2463 54.077 29.6979 58.8022 28.3424C61.3413 27.6139 63.0345 28.439 64.524 30.6023C68.3197 36.113 66.2368 42.0469 61.909 45.5992C61.521 45.9168 61.1336 46.2345 60.7467 46.5516C60.7791 46.6778 60.812 46.8034 60.8444 46.929Z" fill="#DD8D00"/>
<path fill-rule="evenodd" clip-rule="evenodd" d="M109.73 8.90354C112.702 7.96788 115.481 6.65314 117.977 4.78293C115.228 6.15628 112.479 7.53019 109.73 8.90354ZM115.873 21.3904C115.943 18.235 116.55 15.1466 117.035 12.0426C117.108 11.5787 117.438 11.0729 116.855 10.6676C116.295 10.2785 115.863 10.676 115.484 10.9255C113.417 12.2838 111.067 12.9593 108.814 13.8916C107.392 14.4812 106.069 15.3443 104.589 15.9053C102.311 16.7684 100.094 17.8035 97.8774 18.8229C96.7541 19.3393 95.4377 19.3074 94.4607 20.2917C93.5022 21.2569 92.4632 20.9661 91.2836 19.3577C90.6812 18.537 90.4345 17.4428 91.4595 16.664C92.3025 16.0237 93.2097 15.4375 94.1598 14.9747C100.449 11.9126 106.762 8.90124 113.055 5.84637C114.467 5.16081 115.835 4.37923 117.214 3.62556C119.721 2.255 120.782 2.6229 122.122 5.16081C123.162 7.13095 123.245 9.07542 122.546 11.174C121.2 15.2136 119.969 19.2918 119.405 23.5319C119.292 24.3816 119.299 25.2463 119.219 26.1016C119.127 27.092 118.663 27.3449 117.813 26.7621C115.927 25.4713 115.768 25.0364 115.873 21.3904Z" fill="#DD8D00"/>
</svg>
