<svg width="123" height="58" viewBox="0 0 123 58" fill="none" xmlns="http://www.w3.org/2000/svg">
<path fill-rule="evenodd" clip-rule="evenodd" d="M72.6579 10.0298L81.9347 6.7053C78.6487 7.27027 75.562 8.40859 72.6579 10.0298ZM51.1309 11.6332C54.8155 10.7717 58.4353 9.79253 62.1707 9.34815C58.2561 9.02658 54.6513 10.2196 51.1309 11.6332ZM60.2697 23.0003C60.2502 24.4568 61.1903 24.2742 62.0528 24.1497C64.9698 23.7305 66.4693 21.4823 67.8823 19.319C68.9123 17.7425 69.7843 15.9738 69.8083 13.9825C69.8178 13.2232 69.6157 12.6197 68.6332 13.1618C65.9507 14.6424 63.5389 16.4417 61.7988 19.0103C60.9698 20.234 60.3942 21.5761 60.2697 23.0003ZM62.1556 11.071C59.7829 10.9532 57.5063 11.607 55.2336 12.1842C45.4136 14.6792 37.1416 19.9051 29.644 26.5732C24.6358 31.0276 20.1015 35.9158 15.7308 40.9738C15.3316 41.4349 14.9464 41.9173 14.3457 42.1283C13.6707 42.365 13.194 42.3109 13.5116 41.4115C13.5892 41.1898 13.8968 40.9827 13.4765 40.8538C12.0266 40.4083 12.4197 39.352 12.677 38.3912C13.1594 36.588 14.3664 35.1666 15.3992 33.6872C18.2921 29.542 21.3448 25.5024 24.901 21.8982C28.2026 18.5525 31.9519 15.7226 35.7783 12.9993C38.2141 11.2659 40.7157 9.53635 43.583 8.75309C45.4878 8.23279 47.0264 7.06934 48.8849 6.5401C52.4478 5.52572 56.0073 4.55321 59.7305 4.34665C62.7948 4.17693 65.6895 4.78433 68.3552 6.30897C69.2339 6.81198 70.0602 6.84715 70.9523 6.47981C73.3568 5.49055 75.8003 4.57554 78.2361 3.70073C82.1987 2.27657 86.369 1.48773 90.5426 0.864698C97.1995 -0.129027 103.866 -0.442218 110.524 0.878097C114.438 1.65409 118.246 2.6735 121.185 5.64016C121.958 6.42118 122.532 7.28316 122.496 8.4438C122.481 8.94402 122.323 9.32252 121.833 9.53188C121.254 9.77864 121.204 9.3683 120.937 8.99314C119.107 6.41951 116.191 6.08231 113.421 5.51176C105.785 3.93911 98.1882 4.65928 90.6096 5.98462C84.8103 6.999 79.1656 8.56942 73.7113 10.7986C73.2781 10.9756 72.6807 10.9605 73.0414 11.7784C74.298 14.6278 74.0954 17.5414 73.0726 20.3769C71.4944 24.7537 68.923 28.3021 64.1978 29.6576C61.6587 30.3862 59.9655 29.561 58.476 27.3977C54.6803 21.887 56.7632 15.9531 61.091 12.4008C61.479 12.0832 61.8664 11.7655 62.2533 11.4484C62.2209 11.3223 62.188 11.1967 62.1556 11.071Z" fill="#DD8D00"/>
<path fill-rule="evenodd" clip-rule="evenodd" d="M13.27 49.0965C10.2983 50.0322 7.51871 51.3469 5.02267 53.2171C7.77161 51.8438 10.5205 50.4699 13.27 49.0965ZM7.12672 36.6097C7.05693 39.7651 6.45009 42.8534 5.96496 45.9574C5.89238 46.4214 5.56188 46.9272 6.14472 47.3325C6.70466 47.7216 7.13677 47.3241 7.51584 47.0745C9.58312 45.7163 11.9334 45.0408 14.1855 44.1084C15.608 43.5189 16.9305 42.6558 18.4105 42.0947C20.6894 41.2317 22.9063 40.1966 25.1226 39.1772C26.2459 38.6608 27.5623 38.6926 28.5393 37.7084C29.4978 36.7431 30.5368 37.034 31.7164 38.6424C32.3188 39.463 32.5655 40.5573 31.5405 41.3361C30.6975 41.9764 29.7904 42.5626 28.8402 43.0254C22.5512 46.0875 16.2377 49.0988 9.94544 52.1537C8.53301 52.8393 7.16524 53.6208 5.78631 54.3745C3.2791 55.7451 2.21783 55.3772 0.877975 52.8393C-0.162089 50.8691 -0.245268 48.9247 0.454246 46.8261C1.80024 42.7864 3.03123 38.7083 3.59509 34.4682C3.70786 33.6185 3.70116 32.7537 3.78099 31.8985C3.87255 30.9081 4.33703 30.6552 5.18728 31.238C7.07257 32.5288 7.23167 32.9636 7.12672 36.6097Z" fill="#DD8D00"/>
</svg>
