<svg width="20" height="20" viewBox="0 0 20 20" fill="none" xmlns="http://www.w3.org/2000/svg">
<path fill-rule="evenodd" clip-rule="evenodd" d="M8.48684 2.15282C8.96946 0.656092 11.0871 0.65609 11.5697 2.15282L12.912 6.31559H17.2688C18.8347 6.31559 19.489 8.31696 18.2255 9.24198L14.6902 11.8302L16.0381 16.0102C16.5199 17.5045 14.8068 18.7415 13.5399 17.8141L10.0283 15.2432L6.51663 17.8141C5.24976 18.7415 3.53663 17.5045 4.01848 16.0102L5.36634 11.8302L1.83102 9.24198C0.567499 8.31696 1.2218 6.31559 2.78774 6.31559H7.14454L8.48684 2.15282ZM11.3706 6.81263L10.0283 2.64986L8.68597 6.81263C8.47023 7.48168 7.84752 7.93517 7.14454 7.93517H2.78774L6.32306 10.5234C6.88638 10.9358 7.12203 11.6628 6.90777 12.3272L5.55991 16.5073L9.07155 13.9364C9.64119 13.5194 10.4153 13.5194 10.985 13.9364L14.4966 16.5073L13.1488 12.3272C12.9345 11.6628 13.1702 10.9358 13.7335 10.5234L17.2688 7.93517H12.912C12.209 7.93517 11.5863 7.48168 11.3706 6.81263Z" fill="#FF731D"/>
</svg>
